<svg width="19" height="20" viewBox="0 0 19 20" fill="none" xmlns="http://www.w3.org/2000/svg">
<path d="M14.7033 5.17622C14.604 5.17622 14.5087 5.13673 14.4384 5.06645C14.3681 4.99617 14.3286 4.90086 14.3286 4.80147C14.3286 4.70208 14.3681 4.60676 14.4384 4.53648C14.5087 4.4662 14.604 4.42672 14.7033 4.42672M14.7033 5.17622C14.8027 5.17622 14.898 5.13673 14.9683 5.06645C15.0386 4.99617 15.0781 4.90086 15.0781 4.80147C15.0781 4.70208 15.0386 4.60676 14.9683 4.53648C14.898 4.4662 14.8027 4.42672 14.7033 4.42672" stroke="white" stroke-linecap="round" stroke-linejoin="round"/>
<path d="M0.501499 4.85693C0.501499 3.83401 0.907819 2.85298 1.63107 2.12967C2.35433 1.40635 3.33527 1 4.35811 1H14.6434C15.1498 1 15.6513 1.09976 16.1193 1.29359C16.5872 1.48742 17.0123 1.77152 17.3704 2.12967C17.7285 2.48782 18.0126 2.913 18.2064 3.38095C18.4002 3.84889 18.5 4.35043 18.5 4.85693V15.1431C18.5 16.166 18.0937 17.147 17.3704 17.8703C16.6472 18.5936 15.6662 19 14.6434 19H4.35661C3.33377 19 2.35283 18.5936 1.62957 17.8703C0.90632 17.147 0.5 16.166 0.5 15.1431L0.501499 4.85693Z" stroke="white" stroke-linecap="round" stroke-linejoin="round"/>
<path d="M5.67862 10C5.67862 10.502 5.77748 10.999 5.96956 11.4628C6.16164 11.9266 6.44317 12.3479 6.79809 12.7029C7.15301 13.0578 7.57436 13.3394 8.03808 13.5315C8.5018 13.7236 8.99882 13.8225 9.50075 13.8225C10.0027 13.8225 10.4997 13.7236 10.9634 13.5315C11.4271 13.3394 11.8485 13.0578 12.2034 12.7029C12.5583 12.3479 12.8399 11.9266 13.0319 11.4628C13.224 10.999 13.3229 10.502 13.3229 10C13.3229 8.98622 12.9202 8.01397 12.2034 7.29712C11.4866 6.58027 10.5144 6.17755 9.50075 6.17755C8.48706 6.17755 7.51488 6.58027 6.79809 7.29712C6.0813 8.01397 5.67862 8.98622 5.67862 10Z" stroke="white" stroke-linecap="round" stroke-linejoin="round"/>
</svg>
