<svg width="19" height="20" viewBox="0 0 19 20" fill="none" xmlns="http://www.w3.org/2000/svg">
<path d="M9.51635 19C7.89887 19 6.31418 18.5631 4.92621 17.7439L4.59834 17.5473L1.18852 18.443L2.09562 15.1226L1.87704 14.784C0.978409 13.3498 0.501246 11.6921 0.5 10C0.5 5.04126 4.5437 1 9.50542 1C11.9098 1 14.1721 1.93932 15.866 3.6432C16.7048 4.47763 17.3695 5.47014 17.8217 6.56321C18.2738 7.65627 18.5043 8.82815 18.4999 10.0109C18.5218 14.9697 14.4781 19 9.51635 19ZM14.4562 12.2718C14.183 12.1408 12.8497 11.4854 12.6092 11.3871C12.3579 11.2998 12.183 11.2561 11.9972 11.5182C11.8114 11.7913 11.2978 12.4029 11.1448 12.5777C10.9918 12.7634 10.8278 12.7852 10.5546 12.6432C10.2814 12.5121 9.40706 12.2172 8.37974 11.2998C7.571 10.5789 7.03549 9.69417 6.87155 9.42112C6.71855 9.14806 6.84969 9.00607 6.99177 8.86408C7.11199 8.74393 7.26499 8.54733 7.39614 8.39442C7.52729 8.2415 7.58193 8.12136 7.66936 7.9466C7.75679 7.76092 7.71308 7.60801 7.64751 7.47694C7.58193 7.34587 7.03549 6.01335 6.81691 5.46723C6.59833 4.94296 6.36882 5.0085 6.20489 4.99757H5.6803C5.49451 4.99757 5.21036 5.06311 4.95899 5.33617C4.71856 5.60922 4.01911 6.26456 4.01911 7.59709C4.01911 8.92961 4.99178 10.2184 5.12293 10.3932C5.25408 10.5789 7.03549 13.3095 9.74586 14.4782C10.3907 14.7621 10.8934 14.926 11.2868 15.0461C11.9316 15.2536 12.5218 15.2209 12.9917 15.1553C13.5163 15.0789 14.5983 14.5 14.8169 13.8665C15.0464 13.233 15.0464 12.6978 14.9699 12.5777C14.8934 12.4575 14.7294 12.4029 14.4562 12.2718Z" stroke="white"/>
</svg>
