<svg width="21" height="16" viewBox="0 0 21 16" fill="none" xmlns="http://www.w3.org/2000/svg">
<path d="M9 5.90802V10.092C9.00026 10.1459 9.01113 10.1991 9.03197 10.2488C9.05282 10.2984 9.08324 10.3435 9.1215 10.3813C9.15976 10.4192 9.2051 10.4492 9.25495 10.4696C9.30479 10.4899 9.35816 10.5003 9.412 10.5C9.49297 10.4998 9.57214 10.4762 9.64 10.432L12.815 8.35802C12.8715 8.32144 12.918 8.27137 12.9503 8.21233C12.9826 8.15328 12.9996 8.08712 12.9999 8.01983C13.0002 7.95253 12.9837 7.88622 12.952 7.82689C12.9202 7.76756 12.8742 7.71708 12.818 7.68002L9.643 5.57001C9.55223 5.50926 9.44117 5.48673 9.33391 5.50732C9.22664 5.52791 9.13182 5.58996 9.07 5.68002C9.02425 5.74724 8.99986 5.8267 9 5.90802Z" stroke="white" stroke-linecap="round" stroke-linejoin="round"/>
<path d="M0.5 8C0.5 4.7 0.5 3.05 1.964 2.025C3.43 1 5.786 1 10.5 1C15.214 1 17.571 1 19.035 2.025C20.5 3.05 20.5 4.7 20.5 8C20.5 11.3 20.5 12.95 19.035 13.975C17.572 15 15.214 15 10.5 15C5.786 15 3.429 15 1.964 13.975C0.5 12.95 0.5 11.3 0.5 8Z" stroke="white" stroke-linecap="round" stroke-linejoin="round"/>
</svg>
