<svg width="19" height="20" viewBox="0 0 19 20" fill="none" xmlns="http://www.w3.org/2000/svg">
<path d="M5.93328 6.56053C5.93328 6.28439 5.70942 6.06053 5.43328 6.06053C5.15713 6.06053 4.93328 6.28439 4.93328 6.56053H5.93328ZM4.93328 13.8481C4.93328 14.1242 5.15713 14.3481 5.43328 14.3481C5.70942 14.3481 5.93328 14.1242 5.93328 13.8481H4.93328ZM13.4322 13.8481C13.4322 14.1242 13.6561 14.3481 13.9322 14.3481C14.2083 14.3481 14.4322 14.1242 14.4322 13.8481H13.4322ZM13.9322 9.17296H14.4322L14.4322 9.17211L13.9322 9.17296ZM11.1008 6.34161L11.1017 5.84161H11.1008L11.1008 6.34161ZM7.76463 13.8481C7.76463 14.1242 7.98849 14.3481 8.26463 14.3481C8.54077 14.3481 8.76463 14.1242 8.76463 13.8481H7.76463ZM8.76463 6.56053C8.76463 6.28439 8.54077 6.06053 8.26463 6.06053C7.98849 6.06053 7.76463 6.28439 7.76463 6.56053H8.76463ZM17.527 1V0.5V1ZM1.47297 1V0.5V1ZM0.5 1.97297H0H0.5ZM0.5 18.027H0H0.5ZM5.29814 4.87244C5.29814 4.79781 5.35864 4.73731 5.43328 4.73731V5.73731C5.91093 5.73731 6.29814 5.35009 6.29814 4.87244H5.29814ZM5.43328 4.73731C5.50791 4.73731 5.56841 4.79781 5.56841 4.87244H4.56841C4.56841 5.35009 4.95563 5.73731 5.43328 5.73731V4.73731ZM5.56841 4.87244C5.56841 4.94708 5.50791 5.00758 5.43328 5.00758V4.00758C4.95563 4.00758 4.56841 4.39479 4.56841 4.87244H5.56841ZM5.43328 5.00758C5.35864 5.00758 5.29814 4.94708 5.29814 4.87244H6.29814C6.29814 4.39479 5.91093 4.00758 5.43328 4.00758V5.00758ZM4.93328 6.56053V13.8481H5.93328V6.56053H4.93328ZM14.4322 13.8481V9.17296H13.4322V13.8481H14.4322ZM14.4322 9.17211C14.4307 8.28927 14.0793 7.44302 13.455 6.81876L12.7479 7.52587C13.1851 7.96302 13.4311 8.55561 13.4322 9.17382L14.4322 9.17211ZM13.455 6.81876C12.8308 6.1945 11.9845 5.84313 11.1017 5.84161L11.1 6.84161C11.7182 6.84267 12.3108 7.08873 12.7479 7.52587L13.455 6.81876ZM11.1008 5.84161C10.217 5.84161 9.3693 6.19232 8.7438 6.81674L9.4503 7.52446C9.88831 7.0872 10.4819 6.84161 11.1008 6.84161L11.1008 5.84161ZM8.7438 6.81674C8.11831 7.44117 7.76614 8.28828 7.76463 9.17211L8.76463 9.17382C8.76569 8.55491 9.01229 7.96172 9.4503 7.52446L8.7438 6.81674ZM7.76463 9.17296V13.8481H8.76463V9.17296H7.76463ZM8.76463 9.17296V6.56053H7.76463V9.17296H8.76463ZM17.527 0.5H1.47297V1.5H17.527V0.5ZM1.47297 0.5C1.08232 0.5 0.70766 0.655188 0.431424 0.931424L1.13853 1.63853C1.22723 1.54983 1.34753 1.5 1.47297 1.5V0.5ZM0.431424 0.931424C0.155188 1.20766 0 1.58232 0 1.97297H1C1 1.84753 1.04983 1.72723 1.13853 1.63853L0.431424 0.931424ZM0 1.97297V18.027H1V1.97297H0ZM0 18.027C0 18.4177 0.155187 18.7923 0.431424 19.0686L1.13853 18.3615C1.04983 18.2728 1 18.1525 1 18.027H0ZM0.431424 19.0686C0.70766 19.3448 1.08232 19.5 1.47297 19.5V18.5C1.34753 18.5 1.22723 18.4502 1.13853 18.3615L0.431424 19.0686ZM1.47297 19.5H17.527V18.5H1.47297V19.5ZM17.527 19.5C17.9177 19.5 18.2923 19.3448 18.5686 19.0686L17.8615 18.3615C17.7728 18.4502 17.6525 18.5 17.527 18.5V19.5ZM18.5686 19.0686C18.8448 18.7923 19 18.4177 19 18.027H18C18 18.1525 17.9502 18.2728 17.8615 18.3615L18.5686 19.0686ZM19 18.027V1.97297H18V18.027H19ZM19 1.97297C19 1.58232 18.8448 1.20766 18.5686 0.931424L17.8615 1.63853C17.9502 1.72723 18 1.84753 18 1.97297H19ZM18.5686 0.931424C18.2923 0.655187 17.9177 0.5 17.527 0.5V1.5C17.6525 1.5 17.7728 1.54983 17.8615 1.63853L18.5686 0.931424Z" fill="white"/>
</svg>
