<svg width="19" height="18" viewBox="0 0 19 18" fill="none" xmlns="http://www.w3.org/2000/svg">
<path d="M9.50051 1.19501C2.54429 1.19276 -0.939819 9.59816 3.97756 14.5149C5.06922 15.6064 6.46018 16.3498 7.97453 16.651C9.48888 16.9523 11.0586 16.7979 12.4851 16.2074C13.9117 15.6168 15.131 14.6167 15.9889 13.3334C16.8468 12.0502 17.3047 10.5415 17.3047 8.99809C17.3047 4.68964 13.8116 1.19652 9.50051 1.19501ZM5.0799 5.08718C5.45585 3.13847 8.00121 2.61642 9.11405 4.25984C10.2269 5.90251 8.79738 8.07174 6.84784 7.6967C6.56029 7.64149 6.28644 7.53018 6.04195 7.36913C5.79745 7.20809 5.5871 7.00046 5.42292 6.75812C5.25873 6.51578 5.14393 6.24347 5.08507 5.95677C5.02622 5.67006 5.02446 5.37457 5.0799 5.08718ZM8.32313 11.8289C7.94493 13.7768 5.39957 14.2952 4.28822 12.651C3.17763 11.0068 4.60864 8.84058 6.55818 9.21637C6.84577 9.2719 7.11958 9.38356 7.36396 9.54495C7.60835 9.70634 7.81851 9.9143 7.98242 10.1569C8.14634 10.3996 8.2608 10.6721 8.31926 10.959C8.37773 11.2459 8.37904 11.5415 8.32313 11.8289ZM9.26863 10.025C8.40417 9.85768 8.17155 8.72956 8.90019 8.23451C9.62807 7.73946 10.5931 8.36953 10.431 9.23512C10.407 9.3634 10.3578 9.48566 10.2863 9.59487C10.2148 9.70409 10.1225 9.7981 10.0145 9.8715C9.90656 9.94491 9.78515 9.99625 9.65728 10.0226C9.5294 10.0489 9.39682 10.0497 9.26863 10.025ZM13.9204 12.9038C13.5444 14.8525 10.9991 15.3738 9.88621 13.7311C8.77262 12.0877 10.2021 9.91919 12.1524 10.2935C12.44 10.3487 12.714 10.46 12.9585 10.6211C13.2031 10.7822 13.4135 10.9899 13.5777 11.2323C13.7418 11.4748 13.8566 11.7472 13.9154 12.034C13.9742 12.3207 13.9759 12.6163 13.9204 12.9038ZM12.4443 8.77682C10.4948 8.40103 9.97326 5.85451 11.6174 4.74139C13.2608 3.62902 15.4302 5.05792 15.0557 7.00663C15.0008 7.2944 14.8897 7.56853 14.7287 7.81331C14.5677 8.0581 14.3599 8.26873 14.1174 8.43316C13.8748 8.59759 13.6022 8.71258 13.3151 8.77155C13.028 8.83052 12.7321 8.83231 12.4443 8.77682ZM10.6929 17.4492L12.3918 17.9068C13.1062 18.0963 13.8666 17.9944 14.5058 17.6237C15.1451 17.2529 15.6109 16.6435 15.8009 15.9296L16.2811 14.1279C14.929 15.9282 12.9203 17.1219 10.6921 17.4492M16.4275 2.69892L14.6543 2.22712C15.5504 2.91611 16.3006 3.77615 16.8615 4.75731C17.4224 5.73848 17.7827 6.82124 17.9215 7.94273L18.4093 6.09828C18.5959 5.38486 18.4921 4.62656 18.1205 3.98952C17.7489 3.35249 17.1398 2.88866 16.4267 2.69967M0.999216 10.3572L0.59325 11.8874C0.403697 12.6015 0.505583 13.3615 0.876509 14.0005C1.24744 14.6395 1.85704 15.1051 2.57131 15.295L4.1524 15.7166C2.4644 14.39 1.33906 12.4765 0.999216 10.3572ZM8.26685 0.525944L6.61071 0.093898C6.25674 -0.000354 5.88765 -0.0239488 5.52455 0.0244624C5.16145 0.0728737 4.81146 0.192342 4.49457 0.376037C4.17769 0.559732 3.90013 0.804053 3.67777 1.09503C3.4554 1.38601 3.29259 1.71795 3.19864 2.07186L2.78517 3.63352C4.14919 1.93657 6.10971 0.82487 8.26685 0.525944Z" fill="white"/>
</svg>
