<svg width="12" height="14" viewBox="0 0 12 14" fill="none" xmlns="http://www.w3.org/2000/svg">
<path d="M7.75 3.33333L4.25 5.66667M7.75 10.6667L4.25 8.33333M4.25 7C4.25 7.44203 4.06563 7.86595 3.73744 8.17851C3.40925 8.49107 2.96413 8.66667 2.5 8.66667C2.03587 8.66667 1.59075 8.49107 1.26256 8.17851C0.934374 7.86595 0.75 7.44203 0.75 7C0.75 6.55797 0.934374 6.13405 1.26256 5.82149C1.59075 5.50893 2.03587 5.33333 2.5 5.33333C2.96413 5.33333 3.40925 5.50893 3.73744 5.82149C4.06563 6.13405 4.25 6.55797 4.25 7ZM11.25 11.3333C11.25 11.7754 11.0656 12.1993 10.7374 12.5118C10.4092 12.8244 9.96413 13 9.5 13C9.03587 13 8.59075 12.8244 8.26256 12.5118C7.93437 12.1993 7.75 11.7754 7.75 11.3333C7.75 10.8913 7.93437 10.4674 8.26256 10.1548C8.59075 9.84226 9.03587 9.66667 9.5 9.66667C9.96413 9.66667 10.4092 9.84226 10.7374 10.1548C11.0656 10.4674 11.25 10.8913 11.25 11.3333ZM11.25 2.66667C11.25 3.10869 11.0656 3.53262 10.7374 3.84518C10.4092 4.15774 9.96413 4.33333 9.5 4.33333C9.03587 4.33333 8.59075 4.15774 8.26256 3.84518C7.93437 3.53262 7.75 3.10869 7.75 2.66667C7.75 2.22464 7.93437 1.80072 8.26256 1.48816C8.59075 1.17559 9.03587 1 9.5 1C9.96413 1 10.4092 1.17559 10.7374 1.48816C11.0656 1.80072 11.25 2.22464 11.25 2.66667Z" stroke="#262627" stroke-linecap="round"/>
</svg>
