<svg width="33" height="32" viewBox="0 0 33 32" fill="none" xmlns="http://www.w3.org/2000/svg">
<g clip-path="url(#clip0_741_7840)">
<path d="M31.7393 17.3125L27.2761 9.58377C27.1825 9.42193 27.0285 9.30386 26.848 9.25546C26.6674 9.20706 26.475 9.23231 26.313 9.32564L24.7505 10.2288V4.23189C24.7505 4.22502 24.7505 4.21752 24.7474 4.21002L24.7436 4.18502C24.7436 4.17627 24.7393 4.16752 24.7374 4.15877L24.7324 4.13877L24.723 4.11252C24.723 4.10627 24.7186 4.10002 24.7167 4.09439L24.7055 4.06877C24.7024 4.06314 24.6999 4.05689 24.6967 4.05127L24.6836 4.02814C24.6799 4.02189 24.6768 4.01564 24.6724 4.00939L24.6586 3.98939L24.6449 3.97064L24.6292 3.95252L24.6205 3.94189L21.5942 0.66127L21.5874 0.654395L21.5674 0.634395L21.5511 0.62002C21.5436 0.61377 21.5361 0.60752 21.528 0.601895C21.5228 0.597588 21.5174 0.593622 21.5117 0.59002L21.4842 0.571895L21.4705 0.56252L21.4367 0.545645L21.4255 0.54002C21.4124 0.534395 21.3986 0.529395 21.3842 0.524395H21.3786C21.3636 0.519395 21.348 0.515645 21.3317 0.511895C21.3155 0.508561 21.2992 0.506061 21.283 0.504395H8.84175C8.59702 0.504725 8.36241 0.602089 8.18936 0.775137C8.01632 0.948185 7.91895 1.18279 7.91862 1.42752V11.2556L6.35612 10.3525C6.19404 10.2592 6.00155 10.2339 5.82087 10.2823C5.64019 10.3307 5.48609 10.4488 5.39237 10.6106L0.927996 18.3406C0.834826 18.5027 0.809678 18.695 0.858061 18.8755C0.906444 19.0561 1.02441 19.2101 1.18612 19.3038L4.83362 21.4113C5.40698 21.9156 5.90385 22.5007 6.30862 23.1481L5.08362 25.2756C4.88111 25.6261 4.79574 26.032 4.83997 26.4343C4.88419 26.8366 5.05569 27.2143 5.32949 27.5124C5.60329 27.8105 5.9651 28.0133 6.36222 28.0915C6.75934 28.1697 7.17104 28.119 7.53737 27.9469C7.62512 28.1981 7.76456 28.4281 7.94668 28.6221C8.1288 28.8161 8.34956 28.9697 8.59472 29.0731C8.83988 29.1765 9.104 29.2274 9.37003 29.2225C9.63606 29.2175 9.8981 29.1569 10.1392 29.0444C10.2964 29.4984 10.6198 29.8759 11.0444 30.1008C11.4689 30.3257 11.9629 30.3812 12.4267 30.2563C12.6249 30.2032 12.8133 30.1188 12.9849 30.0063C13.1357 30.3369 13.3784 30.6172 13.684 30.8139C13.9896 31.0105 14.3452 31.1153 14.7086 31.1156C15.0302 31.1159 15.3466 31.0346 15.6283 30.8794C15.91 30.7242 16.1477 30.5001 16.3192 30.2281L18.028 31.2144C18.3945 31.4264 18.8157 31.5249 19.2382 31.4974C19.6607 31.4699 20.0656 31.3175 20.4014 31.0597C20.7373 30.8019 20.9891 30.4502 21.1249 30.0491C21.2607 29.6481 21.2744 29.2157 21.1642 28.8069C21.148 28.7444 21.1286 28.6819 21.1074 28.6256C21.1695 28.6144 21.232 28.6006 21.2949 28.5844C21.5664 28.5122 21.821 28.387 22.0441 28.2162C22.2672 28.0453 22.4543 27.8321 22.5948 27.5887C22.7353 27.3453 22.8263 27.0766 22.8627 26.798C22.899 26.5194 22.88 26.2363 22.8067 25.965C22.7905 25.9025 22.7717 25.8431 22.7505 25.7844C23.0589 25.7309 23.3518 25.6102 23.6085 25.431C23.8652 25.2518 24.0793 25.0185 24.2359 24.7474C24.3925 24.4763 24.4876 24.1741 24.5145 23.8623C24.5414 23.5504 24.4995 23.2364 24.3917 22.9425C24.7001 22.8889 24.993 22.7681 25.2496 22.5889C25.5062 22.4096 25.7203 22.1761 25.8768 21.905C25.9314 21.8102 25.9789 21.7114 26.0186 21.6094C26.3274 21.4594 26.6124 21.2056 26.8905 20.9575C27.0842 20.7838 27.4093 20.4938 27.5355 20.4731C27.6268 20.4757 27.7171 20.4527 27.7961 20.4069L31.4836 18.2769C31.6451 18.1826 31.7627 18.0282 31.8106 17.8475C31.8585 17.6668 31.8329 17.4744 31.7393 17.3125ZM21.7267 2.28064L23.108 3.78064H21.7267V2.28064ZM8.91862 1.50002H20.7267V4.28064C20.7267 4.41325 20.7794 4.54043 20.8732 4.6342C20.967 4.72797 21.0941 4.78064 21.2267 4.78064H23.7486V10.8063L22.7486 11.3825C20.803 11.3025 17.9105 11.6138 15.9842 12.5006C15.872 12.5533 15.755 12.5951 15.6349 12.6256C15.5774 12.6419 15.5136 12.6606 15.4336 12.6881C15.1965 12.7632 14.9739 12.8782 14.7755 13.0281C14.7552 13.0184 14.7344 13.0101 14.713 13.0031C13.4849 12.5819 11.6674 12.1431 9.88675 12.3944L8.91425 11.8319L8.91862 1.50002ZM4.94237 20.3181L1.94237 18.585L6.10925 11.3656L9.10925 13.0988L4.94237 20.3181ZM7.68175 26.375L7.50737 26.6763C7.44819 26.7789 7.36939 26.8688 7.27546 26.9409C7.18152 27.0131 7.0743 27.066 6.95991 27.0967C6.84552 27.1274 6.7262 27.1353 6.60877 27.1199C6.49134 27.1045 6.37809 27.0661 6.2755 27.0069C6.1729 26.9477 6.08297 26.8689 6.01083 26.775C5.93869 26.681 5.88576 26.5738 5.85505 26.4594C5.82435 26.345 5.81648 26.2257 5.83189 26.1083C5.8473 25.9909 5.88569 25.8776 5.94487 25.775L7.7505 22.65C7.80967 22.5474 7.88848 22.4575 7.98241 22.3853C8.07635 22.3132 8.18357 22.2603 8.29796 22.2296C8.41235 22.1989 8.53167 22.191 8.6491 22.2064C8.76653 22.2218 8.87978 22.2602 8.98237 22.3194C9.08497 22.3786 9.1749 22.4574 9.24704 22.5513C9.31918 22.6452 9.37211 22.7525 9.40281 22.8669C9.43352 22.9812 9.44139 23.1006 9.42597 23.218C9.41056 23.3354 9.37217 23.4487 9.313 23.5513L7.683 26.375H7.68175ZM10.2842 27.4713L10.1099 27.7738C9.98956 27.9799 9.79271 28.1303 9.56214 28.1921C9.33156 28.2539 9.08592 28.2221 8.87862 28.1038C8.67195 27.9839 8.52118 27.7871 8.45933 27.5563C8.39748 27.3255 8.42959 27.0797 8.54862 26.8725L10.1792 24.0494C10.2988 23.8422 10.4957 23.691 10.7267 23.629C10.9577 23.5669 11.2039 23.5993 11.4111 23.7188C11.6183 23.8383 11.7696 24.0352 11.8316 24.2662C11.8936 24.4973 11.8613 24.7434 11.7417 24.9506L10.2874 27.47L10.2842 27.4713ZM12.7124 28.875C12.5929 29.0822 12.3959 29.2335 12.1649 29.2955C11.9339 29.3575 11.6877 29.3252 11.4805 29.2056C11.2733 29.0861 11.1221 28.8892 11.0601 28.6582C10.9981 28.4272 11.0304 28.181 11.1499 27.9738L12.6049 25.4544C12.7241 25.2472 12.9207 25.0958 13.1515 25.0336C13.3822 24.9713 13.6283 25.0033 13.8355 25.1225C14.0427 25.2417 14.1941 25.4383 14.2563 25.6691C14.3185 25.8999 14.2866 26.1459 14.1674 26.3531L13.0636 28.265L12.7124 28.875ZM14.2586 30C14.0527 29.8798 13.9025 29.6832 13.8407 29.4529C13.7789 29.2226 13.8105 28.9772 13.9286 28.77L15.0324 26.8581C15.0915 26.7555 15.1704 26.6656 15.2643 26.5935C15.3582 26.5213 15.4654 26.4684 15.5798 26.4377C15.6942 26.407 15.8135 26.3991 15.931 26.4145C16.0484 26.43 16.1617 26.4683 16.2642 26.5275C16.3668 26.5867 16.4568 26.6655 16.5289 26.7594C16.6011 26.8534 16.654 26.9606 16.6847 27.075C16.7154 27.1894 16.7233 27.3087 16.7079 27.4261C16.6924 27.5436 16.654 27.6568 16.5949 27.7594L15.7049 29.3013L15.4924 29.67C15.3718 29.8766 15.1741 30.027 14.9428 30.0879C14.7114 30.1488 14.4653 30.1154 14.2586 29.995V30ZM20.0836 29.9375C19.9322 30.1994 19.6832 30.3904 19.391 30.4688C19.0989 30.5472 18.7876 30.5065 18.5255 30.3556L16.8192 29.37L17.4586 28.2538C17.6354 27.9475 17.7231 27.5979 17.7117 27.2444L19.6649 28.3694C19.9272 28.5212 20.1185 28.7708 20.197 29.0634C20.2755 29.3561 20.2348 29.668 20.0836 29.9306V29.9375ZM25.0061 21.4119C24.8546 21.6736 24.6055 21.8646 24.3134 21.9428C24.0213 22.0211 23.7101 21.9803 23.448 21.8294L19.3024 19.4363C19.2455 19.4014 19.1821 19.3782 19.1161 19.3682C19.0501 19.3581 18.9828 19.3614 18.918 19.3778C18.8533 19.3943 18.7925 19.4235 18.7393 19.4638C18.686 19.504 18.6414 19.5546 18.608 19.6124C18.5746 19.6702 18.5531 19.7341 18.5448 19.8004C18.5366 19.8667 18.5416 19.9339 18.5597 19.9982C18.5778 20.0624 18.6086 20.1224 18.6503 20.1746C18.692 20.2267 18.7437 20.27 18.8024 20.3019L22.948 22.6875C23.2036 22.842 23.3885 23.0904 23.463 23.3796C23.5375 23.6688 23.4956 23.9757 23.3465 24.2344C23.1973 24.4931 22.9526 24.6831 22.665 24.7634C22.3774 24.8438 22.0697 24.8083 21.808 24.6644L18.6242 22.8263C18.5674 22.7934 18.5046 22.7721 18.4395 22.7636C18.3744 22.755 18.3082 22.7593 18.2448 22.7764C18.1813 22.7934 18.1219 22.8227 18.0698 22.8627C18.0177 22.9027 17.974 22.9525 17.9411 23.0094C17.9083 23.0663 17.887 23.1291 17.8784 23.1942C17.8699 23.2593 17.8742 23.3254 17.8912 23.3889C17.9082 23.4523 17.9375 23.5118 17.9775 23.5639C18.0175 23.616 18.0674 23.6597 18.1242 23.6925L21.3036 25.5281C21.5656 25.6795 21.7567 25.9287 21.835 26.221C21.9132 26.5132 21.8722 26.8246 21.7208 27.0866C21.5695 27.3486 21.3203 27.5397 21.028 27.6179C20.7357 27.6962 20.4244 27.6551 20.1624 27.5038L18.0255 26.27C17.9342 26.218 17.8289 26.196 17.7245 26.2072C17.62 26.2185 17.5218 26.2623 17.4436 26.3325C17.2327 25.9759 16.9107 25.6982 16.5268 25.5421C16.143 25.386 15.7186 25.36 15.3186 25.4681L15.238 25.4913C15.2317 25.4644 15.2255 25.4369 15.218 25.41C15.1539 25.1693 15.043 24.9435 14.8916 24.7456C14.7402 24.5478 14.5512 24.3817 14.3356 24.257C14.1199 24.1322 13.8818 24.0512 13.6348 24.0186C13.3878 23.986 13.1368 24.0024 12.8961 24.0669C12.8686 24.0744 12.8424 24.0819 12.8155 24.0906C12.8092 24.0631 12.803 24.0363 12.7955 24.0088C12.7313 23.7676 12.6202 23.5415 12.4684 23.3434C12.3167 23.1453 12.1273 22.9791 11.9112 22.8543C11.6951 22.7295 11.4565 22.6486 11.209 22.6162C10.9616 22.5839 10.7102 22.6007 10.4692 22.6656L10.3892 22.6888C10.3062 22.3152 10.1123 21.9755 9.833 21.7139C9.55368 21.4524 9.20192 21.2813 8.82375 21.2229C8.44557 21.1646 8.05859 21.2217 7.71344 21.3869C7.36828 21.5521 7.08102 21.8176 6.88925 22.1488L6.868 22.185C6.54161 21.7229 6.17203 21.2928 5.76425 20.9006L10.1061 13.375C11.5436 13.1875 13.0305 13.5113 14.1205 13.8594C14.075 13.9617 14.0376 14.0675 14.0086 14.1756L13.3211 16.7519C13.3042 16.8144 13.288 16.8713 13.273 16.9269C13.1692 17.2963 13.0792 17.6144 13.1611 18.1394C13.2349 18.6228 13.4095 19.0853 13.6736 19.4969C13.8374 19.7388 14.1017 20.0594 14.5049 20.0638H14.5124C14.9386 20.0638 15.1824 19.7194 15.378 19.4419C15.3999 19.4106 15.4224 19.3794 15.4455 19.3475C15.8603 18.7618 16.2454 18.1557 16.5992 17.5313C16.9524 16.9269 17.318 16.3013 17.5492 16.2456L18.1186 16.11L24.5911 19.8469C24.8524 19.9988 25.0429 20.2481 25.1206 20.5402C25.1984 20.8323 25.1573 21.1433 25.0061 21.405V21.4119ZM26.0955 20.3288C26.0269 20.0488 25.9023 19.7856 25.7293 19.5551C25.5562 19.3246 25.3383 19.1315 25.0886 18.9875L18.4436 15.1438C18.3328 15.0799 18.2018 15.0609 18.0774 15.0906L17.3142 15.2725C16.6674 15.4269 16.2755 16.0981 15.733 17.0263C15.3958 17.6229 15.0284 18.202 14.6324 18.7613C14.6074 18.7956 14.583 18.83 14.5592 18.8638L14.5036 18.9425L14.4986 18.935C14.3178 18.6456 14.1981 18.3224 14.1467 17.985C14.0986 17.6756 14.1467 17.5156 14.233 17.1963C14.2492 17.1375 14.2667 17.0763 14.2842 17.0088L14.9717 14.4331C15.0151 14.2702 15.0943 14.119 15.2036 13.9906C15.2136 13.9806 15.2224 13.97 15.2317 13.9594C15.3675 13.8111 15.54 13.7011 15.7317 13.6406C15.8011 13.6188 15.8567 13.6025 15.9074 13.5881C16.0762 13.5429 16.2406 13.4827 16.3986 13.4081C18.2411 12.5625 20.9936 12.3325 22.578 12.375L26.8199 19.7219C26.6087 19.8701 26.4082 20.033 26.2199 20.2094C26.1799 20.25 26.138 20.2844 26.0955 20.3219V20.3288ZM27.7261 19.2913L23.5567 12.0719L26.5568 10.3388L30.7249 17.5581L27.7261 19.2913ZM13.423 9.79127C13.5556 9.79127 13.6828 9.73859 13.7766 9.64482C13.8703 9.55105 13.923 9.42388 13.923 9.29127V5.94127C13.923 5.80866 13.8703 5.68148 13.7766 5.58772C13.6828 5.49395 13.5556 5.44127 13.423 5.44127H10.0705C9.93789 5.44127 9.81071 5.49395 9.71694 5.58772C9.62318 5.68148 9.5705 5.80866 9.5705 5.94127V9.29252C9.5705 9.42513 9.62318 9.5523 9.71694 9.64607C9.81071 9.73984 9.93789 9.79252 10.0705 9.79252L13.423 9.79127ZM10.5717 6.44002H12.923V8.79127H10.5705L10.5717 6.44002ZM12.7024 7.50814L11.9411 8.38127C11.896 8.43286 11.8408 8.47463 11.7788 8.50398C11.7169 8.53334 11.6496 8.54964 11.5811 8.55189H11.5642C11.4983 8.55228 11.4329 8.5396 11.3719 8.51461C11.3109 8.48962 11.2554 8.4528 11.2086 8.40627L10.813 8.01064C10.7665 7.96415 10.7297 7.90896 10.7046 7.84822C10.6794 7.78749 10.6665 7.7224 10.6666 7.65667C10.6666 7.59095 10.6796 7.52587 10.7047 7.46516C10.7299 7.40444 10.7668 7.34929 10.8133 7.30283C10.8598 7.25638 10.915 7.21953 10.9757 7.19441C11.0365 7.16928 11.1016 7.15637 11.1673 7.15639C11.233 7.15642 11.2981 7.1694 11.3588 7.19458C11.4195 7.21976 11.4747 7.25665 11.5211 7.30314L11.5386 7.32064L11.9467 6.85252C11.9894 6.80157 12.0419 6.75964 12.101 6.72919C12.1601 6.69874 12.2246 6.68037 12.2909 6.67518C12.3572 6.66998 12.4238 6.67805 12.4869 6.69892C12.5501 6.71978 12.6084 6.75302 12.6585 6.7967C12.7086 6.84037 12.7495 6.89361 12.7788 6.95328C12.8081 7.01295 12.8252 7.07787 12.8291 7.14423C12.833 7.21059 12.8237 7.27707 12.8016 7.33977C12.7795 7.40247 12.7451 7.46013 12.7005 7.50939L12.7024 7.50814ZM15.3792 9.48814C15.3792 9.35554 15.4319 9.22836 15.5257 9.13459C15.6195 9.04082 15.7466 8.98814 15.8792 8.98814H22.598C22.7306 8.98814 22.8578 9.04082 22.9516 9.13459C23.0453 9.22836 23.098 9.35554 23.098 9.48814C23.098 9.62075 23.0453 9.74793 22.9516 9.8417C22.8578 9.93546 22.7306 9.98814 22.598 9.98814H15.878C15.7456 9.98814 15.6186 9.93564 15.5249 9.84214C15.4312 9.74864 15.3783 9.62179 15.378 9.48939L15.3792 9.48814ZM15.3792 5.94002C15.3792 5.80741 15.4319 5.68023 15.5257 5.58647C15.6195 5.4927 15.7466 5.44002 15.8792 5.44002H18.9992C19.1319 5.44002 19.259 5.4927 19.3528 5.58647C19.4466 5.68023 19.4992 5.80741 19.4992 5.94002C19.4992 6.07263 19.4466 6.1998 19.3528 6.29357C19.259 6.38734 19.1319 6.44002 18.9992 6.44002H15.878C15.7456 6.44002 15.6186 6.38751 15.5249 6.29401C15.4312 6.20052 15.3783 6.07366 15.378 5.94127L15.3792 5.94002ZM15.3792 7.71377C15.3792 7.58116 15.4319 7.45398 15.5257 7.36022C15.6195 7.26645 15.7466 7.21377 15.8792 7.21377H20.3167C20.4494 7.21377 20.5765 7.26645 20.6703 7.36022C20.7641 7.45398 20.8167 7.58116 20.8167 7.71377C20.8167 7.84638 20.7641 7.97355 20.6703 8.06732C20.5765 8.16109 20.4494 8.21377 20.3167 8.21377H15.8792C15.8136 8.21393 15.7485 8.20116 15.6878 8.17619C15.6271 8.15121 15.5719 8.11452 15.5253 8.06821C15.4788 8.02189 15.4418 7.96687 15.4165 7.90627C15.3913 7.84567 15.3782 7.78068 15.378 7.71502L15.3792 7.71377Z" fill="#262627"/>
</g>
<defs>
<clipPath id="clip0_741_7840">
<rect width="32" height="32" fill="white" transform="translate(0.333496)"/>
</clipPath>
</defs>
</svg>
