<svg width="33" height="32" viewBox="0 0 33 32" fill="none" xmlns="http://www.w3.org/2000/svg">
<g clip-path="url(#clip0_741_7843)">
<path d="M28.5984 25.8238C29.142 25.4314 29.5565 24.886 29.7889 24.2572C30.0213 23.6283 30.0612 22.9445 29.9034 22.2929C29.7457 21.6413 29.3974 21.0514 28.903 20.5985C28.4087 20.1456 27.7907 19.8502 27.1278 19.75V16.9775C27.1278 16.8449 27.0751 16.7177 26.9813 16.624C26.8875 16.5302 26.7604 16.4775 26.6278 16.4775H17.1665V14.2425H22.6178C22.7504 14.2425 22.8775 14.1898 22.9713 14.0961C23.0651 14.0023 23.1178 13.8751 23.1178 13.7425C23.1162 12.4055 22.6999 11.1018 21.9263 10.0113C21.1527 8.92077 20.0598 8.09708 18.7984 7.65377C19.5007 7.19459 20.0359 6.52093 20.3245 5.73305C20.6131 4.94516 20.6395 4.08516 20.4 3.28101C20.1604 2.47687 19.6676 1.77156 18.9949 1.27005C18.3222 0.768533 17.5056 0.49762 16.6665 0.49762C15.8274 0.49762 15.0108 0.768533 14.3381 1.27005C13.6654 1.77156 13.1726 2.47687 12.933 3.28101C12.6935 4.08516 12.7199 4.94516 13.0085 5.73305C13.2971 6.52093 13.8324 7.19459 14.5346 7.65377C13.2732 8.09708 12.1804 8.92077 11.4067 10.0113C10.6331 11.1018 10.2168 12.4055 10.2153 13.7425C10.2153 13.8751 10.2679 14.0023 10.3617 14.0961C10.4555 14.1898 10.5826 14.2425 10.7153 14.2425H16.1665V16.4775H6.70525C6.57265 16.4775 6.44547 16.5302 6.3517 16.624C6.25793 16.7177 6.20525 16.8449 6.20525 16.9775V19.75C5.54204 19.85 4.92365 20.1453 4.429 20.5983C3.93436 21.0513 3.5859 21.6413 3.4281 22.2932C3.27029 22.9451 3.31029 23.6292 3.543 24.2583C3.77571 24.8873 4.19057 25.4328 4.73463 25.825C3.68633 26.2256 2.78413 26.9346 2.1471 27.8585C1.51007 28.7824 1.16817 29.8778 1.1665 31C1.1665 31.1326 1.21918 31.2598 1.31295 31.3536C1.40672 31.4473 1.5339 31.5 1.6665 31.5H31.6665C31.7991 31.5 31.9263 31.4473 32.0201 31.3536C32.1138 31.2598 32.1665 31.1326 32.1665 31C32.1651 29.8776 31.8233 28.7819 31.1863 27.8578C30.5492 26.9336 29.6469 26.2244 28.5984 25.8238ZM13.7709 4.39564C13.7709 3.82294 13.9407 3.2631 14.2589 2.78692C14.5771 2.31074 15.0293 1.9396 15.5584 1.72043C16.0875 1.50127 16.6697 1.44393 17.2314 1.55566C17.7931 1.66738 18.3091 1.94317 18.714 2.34813C19.119 2.75309 19.3948 3.26904 19.5065 3.83073C19.6182 4.39243 19.5609 4.97464 19.3417 5.50375C19.1225 6.03286 18.7514 6.48509 18.2752 6.80327C17.799 7.12144 17.2392 7.29127 16.6665 7.29127C15.8988 7.29044 15.1628 6.9851 14.6199 6.44224C14.077 5.89939 13.7717 5.16336 13.7709 4.39564ZM16.6665 8.29127C18.0251 8.29316 19.3341 8.8016 20.3378 9.71722C21.3415 10.6328 21.9677 11.8898 22.094 13.2425H11.2378C11.3641 11.8896 11.9904 10.6324 12.9944 9.71679C13.9983 8.80115 15.3077 8.29285 16.6665 8.29127ZM29.004 23.0869C29.004 23.5566 28.8647 24.0158 28.6037 24.4064C28.3428 24.7969 27.9719 25.1013 27.5379 25.2811C27.1039 25.4609 26.6264 25.5079 26.1657 25.4163C25.705 25.3246 25.2818 25.0984 24.9496 24.7663C24.6175 24.4341 24.3913 24.0109 24.2996 23.5502C24.208 23.0895 24.255 22.612 24.4348 22.178C24.6145 21.744 24.919 21.3731 25.3095 21.1122C25.7001 20.8512 26.1593 20.7119 26.629 20.7119C27.2587 20.7122 27.8624 20.9626 28.3076 21.408C28.7527 21.8533 29.0028 22.4572 29.0028 23.0869H29.004ZM26.129 17.4775V19.75C25.4657 19.85 24.8472 20.1453 24.3525 20.5984C23.8578 21.0515 23.5093 21.6417 23.3516 22.2937C23.1938 22.9457 23.2339 23.6299 23.4668 24.259C23.6997 24.8881 24.1147 25.4335 24.659 25.8256C23.341 26.3264 22.2641 27.3116 21.6484 28.58C21.0294 27.3142 19.9539 26.3298 18.6384 25.825C19.1825 25.4327 19.5973 24.8871 19.83 24.258C20.0626 23.6289 20.1025 22.9447 19.9445 22.2927C19.7866 21.6408 19.438 21.0508 18.9432 20.5979C18.4484 20.145 17.8298 19.8498 17.1665 19.75V17.4775H26.129ZM14.2915 23.0869C14.2915 22.6172 14.4308 22.158 14.6918 21.7674C14.9527 21.3768 15.3237 21.0724 15.7576 20.8927C16.1916 20.7129 16.6691 20.6659 17.1298 20.7575C17.5905 20.8492 18.0137 21.0754 18.3459 21.4075C18.678 21.7397 18.9042 22.1628 18.9959 22.6236C19.0875 23.0843 19.0405 23.5618 18.8607 23.9958C18.681 24.4297 18.3765 24.8007 17.986 25.0616C17.5954 25.3226 17.1362 25.4619 16.6665 25.4619C16.0366 25.4619 15.4325 25.2117 14.9871 24.7663C14.5417 24.3209 14.2915 23.7168 14.2915 23.0869ZM16.1665 17.4775V19.75C15.5033 19.85 14.8849 20.1453 14.3903 20.5983C13.8956 21.0513 13.5472 21.6413 13.3893 22.2932C13.2315 22.9451 13.2715 23.6292 13.5043 24.2583C13.737 24.8873 14.1518 25.4328 14.6959 25.825C13.3804 26.33 12.305 27.3143 11.6859 28.58C11.0702 27.3116 9.99326 26.3264 8.67525 25.8256C9.21952 25.4335 9.63458 24.8881 9.86746 24.259C10.1003 23.6299 10.1405 22.9457 9.98271 22.2937C9.82495 21.6417 9.47648 21.0515 8.98178 20.5984C8.48707 20.1453 7.86858 19.85 7.20525 19.75V17.4775H16.1665ZM4.33025 23.0869C4.33025 22.6172 4.46955 22.158 4.73051 21.7674C4.99148 21.3768 5.36241 21.0724 5.79638 20.8927C6.23036 20.7129 6.70789 20.6659 7.16859 20.7575C7.6293 20.8492 8.05248 21.0754 8.38463 21.4075C8.71678 21.7397 8.94298 22.1628 9.03462 22.6236C9.12626 23.0843 9.07923 23.5618 8.89947 23.9958C8.71971 24.4297 8.4153 24.8007 8.02473 25.0616C7.63417 25.3226 7.17498 25.4619 6.70525 25.4619C6.07537 25.4619 5.47127 25.2117 5.02588 24.7663C4.58048 24.3209 4.33025 23.7168 4.33025 23.0869ZM6.70525 26.4619C7.77635 26.4668 8.81159 26.8484 9.62963 27.5398C10.4477 28.2312 10.9964 29.1884 11.1796 30.2438C11.1684 30.3288 11.1584 30.4144 11.1509 30.5006H2.194C2.31826 29.3907 2.84687 28.3653 3.67896 27.6203C4.51105 26.8752 5.58835 26.4626 6.70525 26.4613V26.4619ZM12.1553 30.5C12.2781 29.3894 12.8062 28.3631 13.6386 27.6177C14.471 26.8723 15.5491 26.4601 16.6665 26.4601C17.7839 26.4601 18.862 26.8723 19.6944 27.6177C20.5268 28.3631 21.0549 29.3894 21.1778 30.5H12.1553ZM22.1821 30.5C22.1746 30.4138 22.1646 30.3281 22.1534 30.2431C22.3355 29.1634 22.9019 28.1859 23.7482 27.4909C24.5944 26.796 25.6634 26.4304 26.758 26.4617C27.8525 26.493 28.8989 26.919 29.704 27.6612C30.5092 28.4033 31.0188 29.4116 31.139 30.5H22.1821Z" fill="#262627"/>
</g>
<defs>
<clipPath id="clip0_741_7843">
<rect width="32" height="32" fill="white" transform="translate(0.666504)"/>
</clipPath>
</defs>
</svg>
