<svg width="32" height="32" viewBox="0 0 32 32" fill="none" xmlns="http://www.w3.org/2000/svg">
<path d="M25.0998 21.0413C27.153 18.7844 28.2898 15.8423 28.2873 12.7913C28.2892 6.01313 22.7761 0.5 15.9998 0.5C9.22358 0.5 3.71045 6.01313 3.71045 12.7894C3.70802 15.8405 4.84474 18.7825 6.89795 21.0394L3.77045 27.7113C3.73254 27.7922 3.71704 27.8819 3.72556 27.9709C3.73408 28.0599 3.76632 28.145 3.81891 28.2173C3.87151 28.2897 3.94253 28.3465 4.02459 28.3821C4.10664 28.4176 4.19673 28.4305 4.28545 28.4194L8.22295 27.9194L10.3573 31.2663C10.4025 31.3371 10.4647 31.3954 10.5384 31.4358C10.612 31.4762 10.6946 31.4974 10.7786 31.4975H10.8111C10.9003 31.4917 10.9863 31.4621 11.0602 31.4117C11.134 31.3614 11.1931 31.2922 11.2311 31.2113L14.173 24.9419C15.3837 25.1235 16.6147 25.1235 17.8255 24.9419L20.7673 31.2125C20.8052 31.2936 20.8641 31.3631 20.938 31.4137C21.0119 31.4643 21.098 31.4941 21.1873 31.5H21.2198C21.3038 31.4999 21.3864 31.4787 21.4601 31.4383C21.5337 31.3979 21.5959 31.3396 21.6411 31.2687L23.7755 27.9219L27.713 28.4219C27.8017 28.433 27.8918 28.4201 27.9738 28.3846C28.0559 28.349 28.1269 28.2922 28.1795 28.2198C28.2321 28.1475 28.2643 28.0624 28.2728 27.9734C28.2814 27.8844 28.2659 27.7947 28.228 27.7138L25.0998 21.0413ZM10.7123 29.965L8.8967 27.1175C8.84582 27.0376 8.77327 26.9738 8.68751 26.9335C8.60176 26.8932 8.50633 26.8781 8.41233 26.89L5.06233 27.3125L7.65045 21.7962C9.20146 23.2401 11.1 24.2578 13.1611 24.75L10.7123 29.965ZM4.71233 12.7894C4.71045 6.5625 9.77483 1.5 15.9998 1.5C22.2248 1.5 27.2892 6.5625 27.2892 12.7894C27.2892 19.0163 22.2248 24.0794 15.9998 24.0794C9.77483 24.0794 4.71045 19.015 4.71045 12.7894H4.71233ZM23.5873 26.89C23.4933 26.8781 23.3979 26.8932 23.3121 26.9335C23.2264 26.9738 23.1538 27.0376 23.103 27.1175L21.2905 29.965L18.8386 24.75C20.8998 24.259 22.7987 23.2427 24.3505 21.8L26.9373 27.3125L23.5873 26.89ZM15.9998 2.635C10.4005 2.635 5.84483 7.1875 5.84483 12.7894C5.84483 18.3913 10.4005 22.9444 15.9998 22.9444C21.5992 22.9444 26.1548 18.3888 26.1548 12.7894C26.1548 7.19 21.5992 2.635 15.9998 2.635ZM15.9998 21.9475C10.9517 21.9475 6.84483 17.8406 6.84483 12.7925C6.84483 7.74437 10.9517 3.635 15.9998 3.635C21.048 3.635 25.1548 7.74188 25.1548 12.7894C25.1548 17.8369 21.048 21.9444 15.9998 21.9444V21.9475ZM23.8605 11.6788C23.8334 11.476 23.7332 11.2901 23.5788 11.1559C23.4244 11.0217 23.2263 10.9485 23.0217 10.95H22.3711C22.2349 10.4775 22.0462 10.0217 21.8086 9.59125L22.2692 9.13125C22.4146 8.98739 22.5027 8.79552 22.5169 8.59148C22.5312 8.38744 22.4707 8.18518 22.3467 8.0225C21.8975 7.42642 21.3672 6.89608 20.7711 6.44688C20.6085 6.32276 20.4063 6.26222 20.2023 6.27661C19.9982 6.29099 19.8065 6.37931 19.663 6.525L19.2023 6.985C18.7721 6.74734 18.3165 6.55866 17.8442 6.4225V5.7675C17.8455 5.56287 17.7722 5.36478 17.6379 5.21037C17.5036 5.05596 17.3177 4.95583 17.1148 4.92875C16.3759 4.82562 15.6262 4.82562 14.8873 4.92875C14.6845 4.95583 14.4985 5.05596 14.3642 5.21037C14.23 5.36478 14.1566 5.56287 14.158 5.7675V6.41875C13.6856 6.55491 13.2301 6.74359 12.7998 6.98125L12.3392 6.52125C12.1957 6.37556 12.0039 6.28724 11.7999 6.27286C11.5959 6.25847 11.3936 6.31901 11.2311 6.44312C10.6347 6.89199 10.1043 7.42238 9.65545 8.01875C9.53122 8.18133 9.47055 8.38364 9.48482 8.58776C9.49908 8.79188 9.58731 8.98378 9.73295 9.1275L10.1936 9.5875C9.95593 10.018 9.76725 10.4737 9.63108 10.9462H8.97795C8.77338 10.9448 8.5753 11.018 8.42087 11.1521C8.26645 11.2863 8.16629 11.4722 8.1392 11.675C8.08762 12.0442 8.06193 12.4166 8.06233 12.7894C8.06246 13.1622 8.08835 13.5345 8.13983 13.9038C8.16719 14.1065 8.2675 14.2924 8.42201 14.4265C8.57651 14.5606 8.7746 14.6339 8.9792 14.6325H9.62983C9.766 15.105 9.95468 15.5608 10.1923 15.9913L9.7317 16.4513C9.58539 16.5951 9.49674 16.7875 9.48247 16.9922C9.46819 17.1969 9.52927 17.3997 9.6542 17.5625C10.1033 18.1585 10.6336 18.6887 11.2298 19.1375C11.3923 19.2618 11.5945 19.3225 11.7985 19.3083C12.0026 19.294 12.1944 19.2057 12.338 19.06L12.7986 18.5994C13.2289 18.837 13.6844 19.0257 14.1567 19.1619V19.8125C14.1554 20.0171 14.2287 20.2152 14.363 20.3696C14.4973 20.524 14.6832 20.6242 14.8861 20.6513C15.625 20.7546 16.3747 20.7546 17.1136 20.6513C17.3164 20.6242 17.5024 20.524 17.6367 20.3696C17.771 20.2152 17.8443 20.0171 17.843 19.8125V19.1606C18.3153 19.0245 18.7708 18.8358 19.2011 18.5981L19.6617 19.0581C19.8052 19.2038 19.9971 19.2921 20.2011 19.3064C20.4052 19.3207 20.6074 19.2599 20.7698 19.1356C21.3662 18.6877 21.8966 18.1582 22.3455 17.5625C22.4694 17.3998 22.5299 17.1976 22.5157 16.9935C22.5014 16.7895 22.4134 16.5976 22.268 16.4538L21.8073 15.9931C22.045 15.5629 22.2337 15.1073 22.3698 14.635H23.0211C23.2257 14.6363 23.4238 14.563 23.5782 14.4287C23.7326 14.2944 23.8328 14.1085 23.8598 13.9056C23.964 13.1668 23.964 12.417 23.8598 11.6781L23.8605 11.6788ZM22.888 13.6356H21.9823C21.8687 13.6357 21.7585 13.6746 21.6699 13.7457C21.5813 13.8168 21.5195 13.916 21.4948 14.0269C21.3538 14.6578 21.1043 15.2595 20.7573 15.805C20.6963 15.9009 20.6697 16.0149 20.6821 16.1279C20.6945 16.241 20.7451 16.3464 20.8255 16.4269L21.4661 17.0625C21.118 17.5063 20.7176 17.9065 20.2736 18.2544L19.6336 17.6144C19.5532 17.534 19.4479 17.4835 19.335 17.471C19.2221 17.4585 19.1083 17.4848 19.0123 17.5456C18.4665 17.8925 17.8647 18.1422 17.2336 18.2838C17.1228 18.3086 17.0238 18.3704 16.9528 18.459C16.8818 18.5476 16.843 18.6577 16.843 18.7712V19.6763C16.2825 19.7439 15.7159 19.7439 15.1555 19.6763V18.7725C15.1555 18.6589 15.1168 18.5486 15.0458 18.4599C14.9748 18.3711 14.8757 18.3092 14.7648 18.2844C14.1337 18.1434 13.5318 17.8938 12.9861 17.5469C12.8901 17.486 12.7763 17.4597 12.6634 17.4722C12.5505 17.4847 12.4452 17.5353 12.3648 17.6156L11.7248 18.2556C11.2809 17.9076 10.8809 17.507 10.5336 17.0625L11.1736 16.4225C11.2541 16.3421 11.3047 16.2367 11.3172 16.1236C11.3297 16.0106 11.3033 15.8966 11.2423 15.8006C10.8953 15.2549 10.6457 14.653 10.5048 14.0219C10.48 13.911 10.4181 13.8119 10.3293 13.7409C10.2406 13.6699 10.1303 13.6312 10.0167 13.6313H9.1117C9.04405 13.0708 9.04405 12.5042 9.1117 11.9438H10.0167C10.1304 11.9438 10.2408 11.905 10.3295 11.8339C10.4183 11.7628 10.4801 11.6635 10.5048 11.5525C10.646 10.9214 10.8955 10.3196 11.2423 9.77375C11.3032 9.67779 11.3295 9.56398 11.317 9.45106C11.3045 9.33814 11.2539 9.23284 11.1736 9.1525L10.5336 8.5125C10.8817 8.06867 11.2821 7.66849 11.7261 7.32062L12.3661 7.96063C12.4464 8.04096 12.5517 8.09154 12.6646 8.10404C12.7776 8.11654 12.8914 8.0902 12.9873 8.02938C13.5328 7.68191 14.1348 7.43234 14.7661 7.29187C14.877 7.26702 14.9761 7.20512 15.0471 7.11639C15.1181 7.02766 15.1568 6.91739 15.1567 6.80375V5.90188C15.7172 5.83428 16.2837 5.83428 16.8442 5.90188V6.80688C16.8442 6.92052 16.8828 7.03079 16.9538 7.11952C17.0248 7.20825 17.1239 7.27014 17.2348 7.295C17.8661 7.43573 18.468 7.68529 19.0136 8.0325C19.1095 8.09333 19.2233 8.11966 19.3363 8.10716C19.4492 8.09467 19.5545 8.04409 19.6348 7.96375L20.2748 7.32375C20.7191 7.67128 21.1196 8.07151 21.4673 8.51562L20.8273 9.15563C20.747 9.23596 20.6964 9.34126 20.6839 9.45418C20.6714 9.56711 20.6978 9.68092 20.7586 9.77687C21.1055 10.3226 21.3551 10.9245 21.4961 11.5556C21.5208 11.6666 21.5827 11.7659 21.6714 11.837C21.7601 11.9081 21.8705 11.9469 21.9842 11.9469H22.8892C22.9569 12.5073 22.9569 13.0739 22.8892 13.6344L22.888 13.6356ZM15.9998 8.5C15.1515 8.49988 14.3223 8.75132 13.6169 9.22252C12.9115 9.69373 12.3617 10.3635 12.037 11.1472C11.7124 11.9309 11.6274 12.7933 11.7928 13.6253C11.9583 14.4573 12.3668 15.2215 12.9666 15.8214C13.5664 16.4212 14.3307 16.8297 15.1627 16.9951C15.9947 17.1606 16.857 17.0756 17.6407 16.7509C18.4244 16.4262 19.0942 15.8764 19.5654 15.1711C20.0366 14.4657 20.2881 13.6364 20.288 12.7881C20.2866 11.6512 19.8344 10.5613 19.0305 9.75742C18.2266 8.95353 17.1367 8.50132 15.9998 8.5ZM15.9998 16.0769C15.3493 16.077 14.7134 15.8842 14.1725 15.5229C13.6316 15.1616 13.21 14.648 12.961 14.0471C12.712 13.4462 12.6467 12.7849 12.7736 12.1469C12.9004 11.5089 13.2136 10.9229 13.6735 10.4628C14.1334 10.0028 14.7194 9.68956 15.3574 9.56261C15.9953 9.43567 16.6566 9.50076 17.2576 9.74966C17.8586 9.99856 18.3723 10.4201 18.7337 10.9609C19.0951 11.5018 19.288 12.1376 19.288 12.7881C19.2873 13.6602 18.9407 14.4963 18.3243 15.1131C17.7078 15.7299 16.8719 16.077 15.9998 16.0781V16.0769Z" fill="#262627"/>
</svg>
