<svg width="32" height="32" viewBox="0 0 32 32" fill="none" xmlns="http://www.w3.org/2000/svg">
<g clip-path="url(#clip0_741_7821)">
<path fill-rule="evenodd" clip-rule="evenodd" d="M4.6875 27.25C4.625 27.25 4.5 27.25 4.4375 27.1875C1 25.375 0.5625 23.0625 0.5625 22.9375V18.375C0.5625 18.25 0.5625 18.125 0.6875 18.0625C0.75 17.9375 0.875 17.9375 1 17.9375C3.375 18.1875 4.375 17.3125 4.375 17.3125C4.5625 17.125 4.8125 17.125 4.9375 17.3125C5 17.3125 5.9375 18.1875 8.3125 17.9375C8.4375 17.9375 8.5625 17.9375 8.625 18.0625C8.75 18.125 8.8125 18.25 8.8125 18.375V22.9375C8.75 23.0625 8.3125 25.375 4.875 27.1875C4.8125 27.25 4.75 27.25 4.6875 27.25ZM1.4375 22.8125C1.5 23.0625 2 24.8125 4.6875 26.3125C7.375 24.8125 7.875 23.0625 7.9375 22.8125V18.8125C6.1875 18.9375 5.125 18.4375 4.6875 18.1875C4.1875 18.4375 3.1875 18.9375 1.4375 18.8125V22.8125Z" fill="#262627"/>
<path fill-rule="evenodd" clip-rule="evenodd" d="M3.8125 24C3.6875 24 3.5625 23.9375 3.5 23.875L2.5 22.875C2.3125 22.6875 2.3125 22.4375 2.5 22.25C2.625 22.0625 2.9375 22.0625 3.125 22.25L3.8125 22.9375L6.1875 20.5625C6.375 20.375 6.625 20.375 6.8125 20.5625C6.9375 20.75 6.9375 21 6.8125 21.1875L4.125 23.875C4 23.9375 3.875 24 3.8125 24ZM31 32H1C0.75 32 0.5625 31.8125 0.5625 31.5625V29.25C0.5625 29 0.75 28.8125 1 28.8125H31C31.25 28.8125 31.4375 29 31.4375 29.25V31.5625C31.4375 31.8125 31.25 32 31 32ZM1.4375 31.125H30.5625V29.6875H1.4375V31.125Z" fill="#262627"/>
<path fill-rule="evenodd" clip-rule="evenodd" d="M29.5 29.6875C29.25 29.6875 29.0625 29.5 29.0625 29.25V0.875H12.875V29.25C12.875 29.5 12.6875 29.6875 12.4375 29.6875C12.1875 29.6875 12 29.5 12 29.25V0.4375C12 0.1875 12.1875 0 12.4375 0H29.5C29.75 0 29.9375 0.1875 29.9375 0.4375V29.25C29.9375 29.5 29.75 29.6875 29.5 29.6875Z" fill="#262627"/>
<path fill-rule="evenodd" clip-rule="evenodd" d="M25.5 29.6875H16.1875C15.9375 29.6875 15.75 29.5 15.75 29.25V19.5625C15.75 18.9375 16.25 18.4375 16.875 18.4375H24.8125C25.4375 18.4375 25.9375 18.9375 25.9375 19.5625V29.25C25.9375 29.5 25.6875 29.6875 25.5 29.6875ZM16.625 28.8125H25.0625V19.5625C25.0625 19.4375 24.9375 19.3125 24.8125 19.3125H16.875C16.6875 19.3125 16.625 19.4375 16.625 19.5625V28.8125Z" fill="#262627"/>
<path fill-rule="evenodd" clip-rule="evenodd" d="M20.8125 29.6875C20.5625 29.6875 20.375 29.5 20.375 29.25V18.875C20.375 18.625 20.5625 18.4375 20.8125 18.4375C21.0625 18.4375 21.25 18.625 21.25 18.875V29.25C21.25 29.5 21 29.6875 20.8125 29.6875ZM17.375 5.3125H14.8125C14.5625 5.3125 14.375 5.125 14.375 4.875V2.8125C14.375 2.5625 14.5625 2.375 14.8125 2.375H17.375C17.625 2.375 17.8125 2.5625 17.8125 2.8125V4.875C17.8125 5.125 17.625 5.3125 17.375 5.3125ZM15.25 4.4375H16.9375V3.25H15.25V4.4375ZM22.25 5.3125H19.6875C19.4375 5.3125 19.25 5.125 19.25 4.875V2.8125C19.25 2.5625 19.4375 2.375 19.6875 2.375H22.25C22.5 2.375 22.6875 2.5625 22.6875 2.8125V4.875C22.6875 5.125 22.5 5.3125 22.25 5.3125ZM20.125 4.4375H21.8125V3.25H20.125V4.4375ZM27.125 5.3125H24.5625C24.3125 5.3125 24.125 5.125 24.125 4.875V2.8125C24.125 2.5625 24.3125 2.375 24.5625 2.375H27.125C27.375 2.375 27.5625 2.5625 27.5625 2.8125V4.875C27.5625 5.125 27.375 5.3125 27.125 5.3125ZM25 4.4375H26.6875V3.25H25V4.4375ZM17.375 9.1875H14.8125C14.5625 9.1875 14.375 9 14.375 8.75V6.6875C14.375 6.4375 14.5625 6.25 14.8125 6.25H17.375C17.625 6.25 17.8125 6.4375 17.8125 6.6875V8.75C17.8125 9 17.625 9.1875 17.375 9.1875ZM15.25 8.3125H16.9375V7.125H15.25V8.3125ZM22.25 9.1875H19.6875C19.4375 9.1875 19.25 9 19.25 8.75V6.6875C19.25 6.4375 19.4375 6.25 19.6875 6.25H22.25C22.5 6.25 22.6875 6.4375 22.6875 6.6875V8.75C22.6875 9 22.5 9.1875 22.25 9.1875ZM20.125 8.3125H21.8125V7.125H20.125V8.3125ZM27.125 9.1875H24.5625C24.3125 9.1875 24.125 9 24.125 8.75V6.6875C24.125 6.4375 24.3125 6.25 24.5625 6.25H27.125C27.375 6.25 27.5625 6.4375 27.5625 6.6875V8.75C27.5625 9 27.375 9.1875 27.125 9.1875ZM25 8.3125H26.6875V7.125H25V8.3125ZM17.375 13.0625H14.8125C14.5625 13.0625 14.375 12.875 14.375 12.625V10.5625C14.375 10.3125 14.5625 10.125 14.8125 10.125H17.375C17.625 10.125 17.8125 10.3125 17.8125 10.5625V12.625C17.8125 12.875 17.625 13.0625 17.375 13.0625ZM15.25 12.1875H16.9375V11H15.25V12.1875ZM22.25 13.0625H19.6875C19.4375 13.0625 19.25 12.875 19.25 12.625V10.5625C19.25 10.3125 19.4375 10.125 19.6875 10.125H22.25C22.5 10.125 22.6875 10.3125 22.6875 10.5625V12.625C22.6875 12.875 22.5 13.0625 22.25 13.0625ZM20.125 12.1875H21.8125V11H20.125V12.1875ZM27.125 13.0625H24.5625C24.3125 13.0625 24.125 12.875 24.125 12.625V10.5625C24.125 10.3125 24.3125 10.125 24.5625 10.125H27.125C27.375 10.125 27.5625 10.3125 27.5625 10.5625V12.625C27.5625 12.875 27.375 13.0625 27.125 13.0625ZM25 12.1875H26.6875V11H25V12.1875ZM17.375 16.9375H14.8125C14.5625 16.9375 14.375 16.75 14.375 16.5V14.4375C14.375 14.1875 14.5625 14 14.8125 14H17.375C17.625 14 17.8125 14.1875 17.8125 14.4375V16.5C17.8125 16.75 17.625 16.9375 17.375 16.9375ZM15.25 16.0625H16.9375V14.875H15.25V16.0625ZM22.25 16.9375H19.6875C19.4375 16.9375 19.25 16.75 19.25 16.5V14.4375C19.25 14.1875 19.4375 14 19.6875 14H22.25C22.5 14 22.6875 14.1875 22.6875 14.4375V16.5C22.6875 16.75 22.5 16.9375 22.25 16.9375ZM20.125 16.0625H21.8125V14.875H20.125V16.0625ZM27.125 16.9375H24.5625C24.3125 16.9375 24.125 16.75 24.125 16.5V14.4375C24.125 14.1875 24.3125 14 24.5625 14H27.125C27.375 14 27.5625 14.1875 27.5625 14.4375V16.5C27.5625 16.75 27.375 16.9375 27.125 16.9375ZM25 16.0625H26.6875V14.875H25V16.0625ZM2.5 29.6875C2.25 29.6875 2.0625 29.5 2.0625 29.25V25.3125C2.0625 25.0625 2.25 24.875 2.5 24.875C2.75 24.875 2.9375 25.0625 2.9375 25.3125V29.25C2.9375 29.5 2.75 29.6875 2.5 29.6875ZM2.5 18.8125C2.25 18.8125 2.0625 18.625 2.0625 18.375V6.3125C2.0625 6.0625 2.25 5.875 2.5 5.875H12.4375C12.6875 5.875 12.875 6.0625 12.875 6.3125C12.875 6.5625 12.6875 6.75 12.4375 6.75H2.9375V18.375C2.9375 18.625 2.75 18.8125 2.5 18.8125Z" fill="#262627"/>
<path fill-rule="evenodd" clip-rule="evenodd" d="M10.4375 10.9375H4.4375C4.1875 10.9375 4 10.75 4 10.5V8.1875C4 7.9375 4.1875 7.75 4.4375 7.75H10.4375C10.6875 7.75 10.875 7.9375 10.875 8.1875V10.5C10.875 10.75 10.6875 10.9375 10.4375 10.9375ZM4.875 10.0625H10V8.625H4.875V10.0625ZM10.4375 15.25H4.4375C4.1875 15.25 4 15.0625 4 14.8125V12.5C4 12.25 4.1875 12.0625 4.4375 12.0625H10.4375C10.6875 12.0625 10.875 12.25 10.875 12.5V14.8125C10.875 15.0625 10.6875 15.25 10.4375 15.25ZM4.875 14.375H10V12.9375H4.875V14.375Z" fill="#262627"/>
</g>
<defs>
<clipPath id="clip0_741_7821">
<rect width="32" height="32" fill="white"/>
</clipPath>
</defs>
</svg>
